PathFileType	4	(X/Y/Z)	D:\Share\Shared_Data\Ergonomics\Sit To Stand Pertubation\S1\Unperturbed_NoHarness.trc
DataRate	CameraRate	NumFrames	NumMarkers	Units	OrigDataRate	OrigDataStartFrame	OrigNumFrames	
100	100	16	18	m	100	3108	261
Frame#	Time	R_Thigh_Med			R_ASIS			R_Pelvis			V_Sacral			L_Pelvis			L_ASIS			Clavical			R_Acromium			L_Acromium			Sternum			Torso			R_Thigh_Lat			R_Thigh			R_Shank_Med			R_Shank_Lat			R_Shank			R_Heel			R_Toe			
		X1	Y1	Z1	X2	Y2	Z2	X3	Y3	Z3	X4	Y4	Z4	X5	Y5	Z5	X6	Y6	Z6	X7	Y7	Z7	X8	Y8	Z8	X9	Y9	Z9	X10	Y10	Z10	X11	Y11	Z11	X12	Y12	Z12	X13	Y13	Z13	X14	Y14	Z14	X15	Y15	Z15	X16	Y16	Z16	X17	Y17	Z17	X18	Y18	Z18	

3108	31.07	0.42552759	0.38823364	-0.0028977566	0.25729526	0.70617181	0.094667297	0.18350293	0.74281622	0.13219533	0.061352337	0.72376819	-0.0084283552	0.18236574	0.74427765	-0.14774258	0.2718125	0.72025787	-0.11365096	0.45875018	0.98330737	-0.010503	0.44221298	1.0794032	0.13922919	0.36694699	1.0698777	-0.19965323	0.45036221	1.003659	0.090338615	0.45314713	0.9956969	-0.065770828	0.44029605	0.4082562	0.11739865	0.37177487	0.57186084	0.079329422	0.32554361	0.08859063	0.062056904	0.3027984	0.098678123	0.14299562	0.38532632	0.29367285	0.14274426	0.24515034	0.033173748	0.092483231	0.44769495	0.049352615	0.12149415
3109	31.08	0.4262543	0.38816504	-0.0027617431	0.26061432	0.70995221	0.094575836	0.18675951	0.74616571	0.13226929	0.064836105	0.72757037	-0.0084432383	0.18549869	0.74782068	-0.14816144	0.27486298	0.72370105	-0.11403959	0.45943283	0.98943793	-0.010651108	0.44211893	1.0852534	0.13894833	0.36714819	1.0737686	-0.19940091	0.4511106	1.0096427	0.090218887	0.45381134	1.0017538	-0.065970787	0.44118555	0.4081319	0.11751797	0.37451132	0.57279358	0.079475502	0.32561255	0.088597305	0.062058994	0.30284183	0.098680756	0.14300537	0.38567987	0.29352951	0.1428721	0.24516615	0.033208805	0.092459045	0.44769055	0.049379986	0.12154604
3110	31.09	0.42691406	0.3881297	-0.0026056817	0.26391562	0.71376843	0.094482674	0.18998593	0.74954431	0.13233075	0.06830751	0.73139221	-0.0084553213	0.18860532	0.75136029	-0.14863431	0.27787375	0.72713062	-0.11448737	0.46006866	0.99557849	-0.010804402	0.44191974	1.0911155	0.13851369	0.36736151	1.0777234	-0.19924266	0.45178156	1.0156404	0.09008699	0.45442767	1.007814	-0.066175026	0.44198386	0.40803281	0.1176748	0.37720743	0.5737486	0.079645981	0.32567606	0.088609215	0.062070763	0.30286835	0.098685143	0.1430208	0.38597833	0.29341684	0.14301332	0.24518253	0.033247543	0.092438141	0.44768207	0.04941288	0.12160121
3111	31.1	0.42750613	0.38812729	-0.0024286356	0.26719839	0.71761603	0.094387215	0.19318707	0.75295593	0.13238399	0.0717696	0.73523566	-0.0084793863	0.19168527	0.7548996	-0.14916595	0.2808468	0.73055139	-0.11500675	0.46065396	1.0017266	-0.010960619	0.44162219	1.0969893	0.13794658	0.36755457	1.0818964	-0.19923647	0.45237897	1.0216523	0.089945625	0.45499933	1.0138757	-0.066380722	0.44269272	0.40796124	0.11786668	0.37985699	0.57472052	0.079831909	0.32573346	0.088626762	0.062092327	0.30287839	0.098690018	0.14304277	0.38622046	0.29333453	0.14316945	0.24519948	0.033290051	0.092421944	0.4476734	0.049439198	0.12165425
3112	31.11	0.42802853	0.38815775	-0.0022276709	0.27046228	0.72149377	0.094286385	0.19636638	0.75640247	0.13243024	0.075223412	0.73910614	-0.0085340776	0.19473685	0.75844537	-0.1497457	0.28378656	0.73397406	-0.1156001	0.46118594	1.0078779	-0.011117673	0.44124277	1.1028745	0.13730907	0.36769934	1.0863851	-0.19941707	0.45290942	1.0276769	0.089796928	0.45552768	1.0199375	-0.066585083	0.44331531	0.40792032	0.11808922	0.3824567	0.57570538	0.080025978	0.32578415	0.088650604	0.062123791	0.30287326	0.098693901	0.14307246	0.38640463	0.29328067	0.14334334	0.24521678	0.033335598	0.092411758	0.44767078	0.049438072	0.12169536
3113	31.12	0.42847888	0.38822156	-0.0019999146	0.27370786	0.72540332	0.094175873	0.19952469	0.75988507	0.13246873	0.07866758	0.74301526	-0.0086322594	0.19775632	0.7620083	-0.1503439	0.28669977	0.73741412	-0.11624951	0.46166391	1.0140273	-0.011273901	0.44080331	1.1087699	0.13668513	0.36777209	1.0912305	-0.19981653	0.4533801	1.0337095	0.089642471	0.45601215	1.0259983	-0.066785233	0.44385547	0.40791336	0.11833661	0.38500586	0.57670013	0.080223221	0.32582751	0.088681335	0.062164963	0.30285449	0.098695587	0.1431109	0.38652963	0.29325259	0.14353729	0.2452343	0.033383453	0.092408371	0.44768246	0.049377777	0.12170933
3114	31.13	0.42885574	0.38831912	-0.0017436719	0.27693619	0.72934698	0.094052277	0.20266191	0.7634024	0.13249825	0.082098297	0.74697894	-0.0087716885	0.20073853	0.7656004	-0.15092429	0.28959625	0.74089191	-0.11691236	0.46208887	1.0201706	-0.011428147	0.44032205	1.1146713	0.13614096	0.36775354	1.0964357	-0.20047134	0.45379691	1.039745	0.089483299	0.45645255	1.0320559	-0.066978477	0.44431653	0.40794305	0.11860318	0.38750558	0.57770178	0.080420723	0.32586325	0.088719604	0.062215149	0.30282336	0.098694847	0.14315869	0.38659457	0.29324805	0.14375224	0.24525182	0.03343346	0.092411789	0.44771909	0.049215485	0.12167545
3115	31.14	0.42915695	0.38845041	-0.0014592036	0.28014752	0.73332648	0.093914192	0.20577939	0.76695087	0.13251817	0.085509422	0.75101099	-0.0089307213	0.20367812	0.76923035	-0.15146439	0.29249066	0.74443195	-0.11751912	0.46246359	1.0263027	-0.011579816	0.43980988	1.1205699	0.13570508	0.36762881	1.1019812	-0.20142076	0.4541637	1.0457761	0.089319946	0.45685132	1.0381056	-0.067163063	0.44470053	0.40801086	0.11888516	0.38995691	0.57870801	0.080616699	0.32589154	0.088766205	0.062273048	0.30278113	0.098692657	0.14321571	0.38659912	0.29326541	0.14398849	0.24526927	0.03348579	0.092421036	0.4477937	0.048900692	0.12156956
3116	31.15	0.42937927	0.3886149	-0.0011495823	0.28334146	0.73734143	0.093762077	0.20888007	0.77052612	0.13252902	0.088893982	0.75512561	-0.0090717535	0.20657178	0.77290033	-0.15196457	0.29540601	0.74805804	-0.11796705	0.46279254	1.0324187	-0.011728773	0.43927258	1.1264561	0.13537607	0.36738943	1.1078198	-0.20269078	0.45448346	1.0517958	0.089152611	0.45721277	1.0441421	-0.067338783	0.44500885	0.40811728	0.11918101	0.39236008	0.57971722	0.080809067	0.32591321	0.088821632	0.062336864	0.30272867	0.098690804	0.14328123	0.38654352	0.29330344	0.14424603	0.24528679	0.03354071	0.092434418	0.4479194	0.04838443	0.12136868
3117	31.16	0.42951855	0.38881186	-0.00082056516	0.28651703	0.74138837	0.093597862	0.21196748	0.77412439	0.13253241	0.092246216	0.75934314	-0.0091497412	0.20942168	0.77660278	-0.15244318	0.29837738	0.75178381	-0.1181118	0.46308084	1.0385125	-0.011875429	0.4387128	1.1323182	0.13513602	0.36703882	1.1138552	-0.20426302	0.45475949	1.0577959	0.088981361	0.45754077	1.0501605	-0.067506889	0.44524304	0.40826221	0.11949015	0.39471417	0.58072919	0.080994774	0.3259295	0.088886124	0.062404961	0.30266672	0.098691254	0.14335414	0.38642889	0.29336151	0.14452461	0.24530453	0.033598396	0.092449982	0.44810547	0.047636562	0.12105894
3118	31.17	0.42957022	0.38904086	-0.00047979486	0.28967343	0.74546124	0.093424355	0.21504393	0.77774316	0.13253142	0.095563156	0.76368866	-0.0091177473	0.21224045	0.7803183	-0.15292886	0.30144983	0.75560718	-0.11777851	0.46333365	1.0445778	-0.012020988	0.43813214	1.1381472	0.13496107	0.36660181	1.119931	-0.20603967	0.45499557	1.0637686	0.088806259	0.45783832	1.056156	-0.067669403	0.44540436	0.40844501	0.119812	0.39701703	0.58174573	0.08116964	0.32594162	0.088959549	0.06247657	0.30259616	0.098695808	0.14343338	0.38625739	0.29343958	0.14482295	0.24532266	0.033658573	0.092466087	0.44834964	0.046673176	0.12064812
3119	31.18	0.42952914	0.38930222	-0.00013626872	0.29281009	0.74955151	0.093244186	0.21810974	0.7813811	0.13253047	0.098845711	0.768177	-0.0089295588	0.21505679	0.78401202	-0.15345459	0.30465628	0.75951447	-0.11683945	0.46355551	1.0506084	-0.012167425	0.43753171	1.1439336	0.1348279	0.36613058	1.1258824	-0.2078457	0.45519577	1.0697064	0.08862764	0.45810791	1.0621224	-0.067828796	0.44549274	0.40866354	0.12014585	0.39926465	0.58276996	0.081328491	0.32595074	0.089041321	0.062551983	0.30251813	0.098705696	0.14351814	0.38603217	0.29353809	0.14513771	0.24534088	0.033719997	0.092481796	0.44863461	0.045567734	0.12017043
3120	31.19	0.42938873	0.38959692	0.00020014481	0.29592578	0.75365063	0.093059135	0.22116426	0.78503687	0.13253368	0.10209947	0.77279327	-0.0085528107	0.21792177	0.78762946	-0.15405203	0.30797891	0.7634903	-0.11535014	0.46374976	1.0566	-0.012317299	0.43691263	1.1496685	0.1347177	0.36568625	1.1316162	-0.20949466	0.45536392	1.0756034	0.088446198	0.45834949	1.0680531	-0.067988152	0.44550653	0.40891425	0.12049194	0.40145105	0.58380518	0.081465866	0.32595721	0.089130455	0.062631966	0.30243417	0.098721161	0.14360779	0.38575684	0.29365771	0.1454642	0.24535858	0.033780258	0.092496895	0.44893576	0.04441795	0.11967109
3121	31.2	0.42914114	0.38992538	0.00052009332	0.29901883	0.75774988	0.092870346	0.22420677	0.78870557	0.13254134	0.10533508	0.777479	-0.0080084085	0.22091383	0.79109619	-0.15474541	0.31133829	0.76752368	-0.11359302	0.46391788	1.0625491	-0.012473706	0.43627588	1.1553433	0.134618	0.36530606	1.1371199	-0.21086436	0.45550232	1.0814537	0.088262825	0.45855872	1.0739427	-0.068151283	0.44544366	0.4091926	0.12085128	0.40356677	0.58485364	0.081577141	0.32596066	0.089225708	0.062717205	0.30234509	0.098741287	0.14370177	0.3854353	0.29379767	0.14579834	0.24537495	0.033836182	0.092511345	0.44922748	0.043319771	0.11919416
3122	31.21	0.42877893	0.39028613	0.00081746966	0.30208865	0.7618418	0.09267865	0.22723688	0.79237622	0.1325463	0.10856609	0.78213702	-0.0074003987	0.22413977	0.79432074	-0.15554076	0.31463763	0.77160297	-0.11192898	0.46406027	1.0684539	-0.012640047	0.43562228	1.1609503	0.13452251	0.36499304	1.1424155	-0.2119117	0.45561099	1.0872535	0.088078476	0.45872885	1.0797863	-0.06832251	0.44530322	0.40949503	0.1212241	0.40559766	0.58591479	0.08165966	0.3259599	0.089325897	0.062807678	0.30225104	0.098764236	0.14379967	0.38507062	0.29395557	0.14613815	0.24538898	0.033884724	0.092525116	0.4494834	0.042371052	0.11878453
3123	31.22	0.42830081	0.39067432	0.0010936186	0.30513623	0.7659212	0.092484367	0.23025481	0.79602887	0.13253221	0.11180293	0.78666583	-0.0068791056	0.22772644	0.79720673	-0.15640964	0.31781641	0.77571063	-0.11060802	0.46417859	1.0743124	-0.012819352	0.4349523	1.1664828	0.13442899	0.36473007	1.1475244	-0.21263927	0.45568668	1.0930012	0.087894203	0.45885458	1.0855786	-0.068506126	0.44508679	0.40981992	0.12160856	0.40752609	0.58698517	0.081714966	0.32595282	0.089429909	0.062902069	0.30215234	0.098787575	0.14390158	0.38466415	0.29412726	0.14648328	0.24539986	0.033923733	0.092538086	0.44968347	0.041646152	0.11847702
